HIERARCHY
ROOT Hips
{
	OFFSET 0.000000 0.000000 0.000000
	CHANNELS 6 Xposition Yposition Zposition Zrotation Yrotation Xrotation 
	JOINT LHipJoint
	{
		OFFSET 0.000000 0.000000 0.000000
		CHANNELS 3 Zrotation Yrotation Xrotation
		JOINT LeftUpLeg
		{
			OFFSET 1.363060 -1.794630 0.839290
			CHANNELS 3 Zrotation Yrotation Xrotation
			JOINT LeftLeg
			{
				OFFSET 2.448110 -6.726130 0.000000
				CHANNELS 3 Zrotation Yrotation Xrotation
				JOINT LeftFoot
				{
					OFFSET 2.562200 -7.039590 0.000000
					CHANNELS 3 Zrotation Yrotation Xrotation
					JOINT LeftToeBase
					{
						OFFSET 0.157640 -0.433110 2.322550
						CHANNELS 3 Zrotation Yrotation Xrotation
						End Site
						{
							OFFSET 0.000000 0.000000 0.000000
						}
					}
				}
			}
		}
	}
	JOINT RHipJoint
	{
		OFFSET 0.000000 0.000000 0.000000
		CHANNELS 3 Zrotation Yrotation Xrotation
		JOINT RightUpLeg
		{
			OFFSET -1.305520 -1.794630 0.839290
			CHANNELS 3 Zrotation Yrotation Xrotation
			JOINT RightLeg
			{
				OFFSET -2.542530 -6.985550 0.000000
				CHANNELS 3 Zrotation Yrotation Xrotation
				JOINT RightFoot
				{
					OFFSET -2.568260 -7.056230 0.000000
					CHANNELS 3 Zrotation Yrotation Xrotation
					JOINT RightToeBase
					{
						OFFSET -0.164730 -0.452590 2.363150
						CHANNELS 3 Zrotation Yrotation Xrotation
						End Site
						{
							OFFSET 0.000000 0.000000 0.000000
						}
					}
				}
			}
		}
	}
	JOINT LowerBack
	{
		OFFSET 0.000000 0.000000 0.000000
		CHANNELS 3 Zrotation Yrotation Xrotation
		JOINT Spine
		{
			OFFSET 0.028270 2.035590 -0.193380
			CHANNELS 3 Zrotation Yrotation Xrotation
			JOINT Spine1
			{
				OFFSET 0.056720 2.048850 -0.042750
				CHANNELS 3 Zrotation Yrotation Xrotation
				JOINT Neck
				{
					OFFSET 0.000000 0.000000 0.000000
					CHANNELS 3 Zrotation Yrotation Xrotation
					JOINT Neck1
					{
						OFFSET -0.054170 1.746240 0.172020
						CHANNELS 3 Zrotation Yrotation Xrotation
						JOINT Head
						{
							OFFSET 0.104070 1.761360 -0.123970
							CHANNELS 3 Zrotation Yrotation Xrotation
							End Site
							{
								OFFSET 0.000000 0.000000 0.000000
							}
						}
					}
				}
				JOINT LeftShoulder
				{
					OFFSET 0.000000 0.000000 0.000000
					CHANNELS 3 Zrotation Yrotation Xrotation
					JOINT LeftArm
					{
						OFFSET 3.362410 1.200890 -0.311210
						CHANNELS 3 Zrotation Yrotation Xrotation
						JOINT LeftForeArm
						{
							OFFSET 4.983000 -0.000000 -0.000000
							CHANNELS 3 Zrotation Yrotation Xrotation
							JOINT LeftHand
							{
								OFFSET 3.483560 -0.000000 -0.000000
								CHANNELS 3 Zrotation Yrotation Xrotation
								JOINT LeftFingerBase
								{
									OFFSET 0.000000 0.000000 0.000000
									CHANNELS 3 Zrotation Yrotation Xrotation
									JOINT LeftHandIndex1
									{
										OFFSET 0.715260 -0.000000 -0.000000
										CHANNELS 3 Zrotation Yrotation Xrotation
										End Site
										{
											OFFSET 0.000000 0.000000 0.000000
										}
									}
								}
								JOINT LThumb
								{
									OFFSET 0.000000 0.000000 0.000000
									CHANNELS 3 Zrotation Yrotation Xrotation
									End Site
									{
										OFFSET 0.000000 0.000000 0.000000
									}
								}
							}
						}
					}
				}
				JOINT RightShoulder
				{
					OFFSET 0.000000 0.000000 0.000000
					CHANNELS 3 Zrotation Yrotation Xrotation
					JOINT RightArm
					{
						OFFSET -3.136600 1.374050 -0.404650
						CHANNELS 3 Zrotation Yrotation Xrotation
						JOINT RightForeArm
						{
							OFFSET -5.241900 -0.000000 -0.000000
							CHANNELS 3 Zrotation Yrotation Xrotation
							JOINT RightHand
							{
								OFFSET -3.444170 -0.000000 -0.000000
								CHANNELS 3 Zrotation Yrotation Xrotation
								JOINT RightFingerBase
								{
									OFFSET 0.000000 0.000000 0.000000
									CHANNELS 3 Zrotation Yrotation Xrotation
									JOINT RightHandIndex1
									{
										OFFSET -0.622530 -0.000000 -0.000000
										CHANNELS 3 Zrotation Yrotation Xrotation
										End Site
										{
											OFFSET 0.000000 0.000000 0.000000
										}
									}
								}
								JOINT RThumb
								{
									OFFSET 0.000000 0.000000 0.000000
									CHANNELS 3 Zrotation Yrotation Xrotation
									End Site
									{
										OFFSET 0.000000 0.000000 0.000000
									}
								}
							}
						}
					}
				}
			}
		}
	}
}
MOTION
Frames: 4
Frame Time: 0.008333
-3.317558 16.956088 0.253302 -126.882260 85.927620 -131.799073 -10.978449 1.740987 -1.328915 -19.837441 27.938909 -25.870463 -2.222813 0.086394 17.064797 3.339142 20.249969 -9.959868 179.316501 0.000000 -6.265300 8.962151 -4.641723 -1.639567 0.312325 -18.155859 11.098679 1.163345 -2.398285 26.094011 0.253214 4.574578 7.373831 0.949699 0.000000 -78.588100 0.389381 0.006929 0.536702 -0.501850 0.020847 -2.291700 -5.423923 0.019950 2.238965 9.603186 -10.225938 -8.241627 -2.089894 -0.155068 -0.158306 0.000000 0.000000 0.000000 -3.798694 23.678051 0.878112 -79.091512 29.353846 2.518441 -3.659750 -21.869256 -0.019229 -4.833477 6.935227 -0.295810 -0.057186 -0.139981 -0.000000 0.000000 0.000000 0.000000 0.000000 0.000000 0.000000 11.972963 -5.406500 -0.084148 42.363264 22.237452 5.310366 1.619998 42.618582 0.007814 1.594719 5.494082 0.078144 0.024120 -0.166786 0.000000 0.000000 0.000000 0.000000 0.000000 0.000000 0.000000 
-3.172291 16.938921 0.201870 -126.170100 85.874562 -131.244696 -11.010639 1.757397 -1.303615 -19.457175 27.697970 -24.906912 -2.202762 0.052308 17.095627 3.387288 20.301506 -10.924828 178.932000 -0.000000 -7.477100 9.119449 -4.686227 -1.702360 -0.617492 -18.641115 10.277625 0.977242 -2.579067 28.532473 0.322873 6.190408 9.160474 1.538900 -0.000000 -81.107601 0.287888 0.013745 0.573634 -0.537938 0.034179 -2.294088 -5.462601 0.035482 2.215316 9.731962 -10.332364 -8.237379 -2.098905 -0.155825 -0.157906 0.000000 0.000000 0.000000 -3.668780 23.645268 0.853533 -78.923502 29.324907 2.602880 -3.657145 -22.129420 -0.019131 -4.807276 6.889545 -0.292306 -0.057571 -0.139664 -0.000000 0.000000 0.000000 0.000000 0.000000 0.000000 0.000000 12.156962 -5.486991 -0.095912 42.451193 21.861702 5.721586 1.608823 43.166776 0.007917 1.678959 5.533685 0.082945 0.022668 -0.166183 0.000000 0.000000 0.000000 0.000000 0.000000 0.000000 0.000000 
-3.027715 16.922762 0.151243 -125.710772 85.877088 -130.920966 -11.018831 1.788564 -1.298390 -19.190924 27.575872 -24.051568 -2.195336 0.027561 17.229998 3.448760 20.402928 -11.965058 178.512200 -0.000000 -8.320700 9.301239 -4.712376 -1.732341 -1.566904 -19.022863 9.314921 0.765285 -2.739780 31.070682 0.345793 7.809577 11.174345 2.254500 -0.000001 -83.293000 0.135536 0.015658 0.591356 -0.583985 0.044780 -2.299865 -5.503456 0.047915 2.194346 9.861391 -10.429542 -8.228859 -2.111538 -0.156920 -0.156359 0.000000 0.000000 0.000000 -3.555448 23.622731 0.823928 -78.700195 29.223980 2.692115 -3.654690 -22.371859 -0.018957 -4.764688 6.819234 -0.286700 -0.058061 -0.139079 -0.000000 0.000000 0.000000 0.000000 0.000000 0.000000 0.000000 12.354545 -5.558520 -0.109891 42.614679 21.490520 6.130670 1.604861 43.635837 0.008072 1.779568 5.573519 0.088646 0.021388 -0.165249 0.000000 0.000000 0.000000 0.000000 0.000000 0.000000 0.000000 
-2.884526 16.907972 0.101865 -125.591461 85.923161 -130.909347 -11.004150 1.834062 -1.310204 -19.034300 27.556145 -23.315350 -2.198864 0.013506 17.467326 3.520262 20.545686 -13.032370 178.073700 0.000000 -8.865400 9.499984 -4.715880 -1.730539 -2.489542 -19.281583 8.222606 0.535962 -2.875859 33.671987 0.316434 9.348349 13.376949 3.084600 -0.000001 -84.982399 -0.063438 0.011223 0.588470 -0.638728 0.050936 -2.309023 -5.546295 0.055479 2.176579 9.988886 -10.518674 -8.216773 -2.127691 -0.158339 -0.153821 0.000000 0.000000 0.000000 -3.456561 23.606135 0.790398 -78.421311 29.040636 2.791067 -3.652407 -22.591474 -0.018712 -4.704438 6.730308 -0.279292 -0.058680 -0.138208 -0.000000 0.000000 0.000000 0.000000 0.000000 0.000000 0.000000 12.561565 -5.622904 -0.126628 42.863723 21.120690 6.518971 1.608354 44.021221 0.008277 1.894103 5.608564 0.094950 0.020335 -0.164004 0.000000 0.000000 0.000000 0.000000 0.000000 0.000000 0.000000 
